<?xml version="1.0" encoding="UTF-8" standalone="no"?>
<!-- Created with Inkscape (http://www.inkscape.org/) -->

<svg
   width="21.110323mm"
   height="19.281212mm"
   viewBox="0 0 21.110323 19.281211"
   version="1.1"
   id="svg1"
   inkscape:version="1.4.2 (f4327f4, 2025-05-13)"
   sodipodi:docname="MalReBay_logo_3.svg"
   xmlns:inkscape="http://www.inkscape.org/namespaces/inkscape"
   xmlns:sodipodi="http://sodipodi.sourceforge.net/DTD/sodipodi-0.dtd"
   xmlns="http://www.w3.org/2000/svg"
   xmlns:svg="http://www.w3.org/2000/svg">
  <sodipodi:namedview
     id="namedview1"
     pagecolor="#ffffff"
     bordercolor="#000000"
     borderopacity="0.25"
     inkscape:showpageshadow="2"
     inkscape:pageopacity="0.0"
     inkscape:pagecheckerboard="0"
     inkscape:deskcolor="#d1d1d1"
     inkscape:document-units="mm"
     inkscape:zoom="1.88"
     inkscape:cx="133.24468"
     inkscape:cy="141.2234"
     inkscape:window-width="1920"
     inkscape:window-height="1094"
     inkscape:window-x="-11"
     inkscape:window-y="-11"
     inkscape:window-maximized="1"
     inkscape:current-layer="layer1" />
  <defs
     id="defs1" />
  <g
     inkscape:label="Ebene 1"
     inkscape:groupmode="layer"
     id="layer1"
     transform="translate(-69.750218,-111.14123)">
    <g
       id="g1706"
       transform="matrix(-0.15568345,-0.03930481,0.03930481,-0.15568345,88.000727,124.77122)">
      <path
         sodipodi:nodetypes="ssscscs"
         inkscape:connector-curvature="0"
         id="path1682"
         d="m 43.289466,20.585074 c -5.075959,-2.188987 -3.301054,-7.723998 3.066808,-15.8335343 1.808595,-2.3032689 4.557361,-5.9003072 6.108365,-7.993415 6.618107,-8.9312517 14.506915,-13.7819627 22.429574,-13.7916037 7.435664,-0.0089 12.112422,-9.780247 33.319797,2.469817 8.45425,4.8834464 10.4688,18.2402183 -8.458971,18.6520027 C 80.827293,4.5001224 46.445741,21.946205 43.289466,20.585074 Z"
         style="fill:#ffd5d5;fill-opacity:1;stroke:#000000;stroke-width:2.48048;stroke-miterlimit:4;stroke-dasharray:none;stroke-dashoffset:0;stroke-opacity:1" />
      <path
         sodipodi:nodetypes="cc"
         inkscape:connector-curvature="0"
         id="path1684"
         d="m 48.53981,20.585074 c 14.002445,8.445117 50.562833,0.496291 57.95716,-17.4911164"
         style="fill:none;fill-rule:evenodd;stroke:#000000;stroke-width:2.48048;stroke-linecap:butt;stroke-linejoin:miter;stroke-miterlimit:4;stroke-dasharray:none;stroke-opacity:1" />
      <path
         transform="matrix(0.65629287,0,0,0.65629287,-298.9926,-278.18023)"
         inkscape:connector-curvature="0"
         id="path1686"
         d="m 545.61993,457.85196 c -4.81289,-0.68487 -11.81965,-2.81053 -11.22488,-3.4053 1.12099,-1.12099 36.75246,-14.13992 46.22082,-16.88804 10.5676,-3.06716 19.41793,-4.76704 27.28609,-5.24083 6.65144,-0.40053 6.59166,-0.0365 -1.17238,7.13806 -8.3817,7.74538 -21.58617,13.82285 -36.75243,16.91563 -5.98656,1.2208 -20.13761,2.08093 -24.35722,1.48048 z"
         style="fill:#c83737;fill-opacity:1;stroke:#c83737;stroke-width:2.86328;stroke-linecap:round;stroke-miterlimit:4;stroke-dasharray:none;stroke-dashoffset:0;stroke-opacity:1" />
      <ellipse
         ry="3.2317452"
         rx="2.4859579"
         cy="2.3481796"
         cx="60.974106"
         id="ellipse1688"
         style="fill:#000000;fill-opacity:1;stroke:none;stroke-width:2.48048;stroke-linecap:round;stroke-miterlimit:4;stroke-dasharray:none;stroke-dashoffset:0;stroke-opacity:1" />
      <ellipse
         style="fill:#000000;fill-opacity:1;stroke:none;stroke-width:2.48048;stroke-linecap:round;stroke-miterlimit:4;stroke-dasharray:none;stroke-dashoffset:0;stroke-opacity:1"
         id="ellipse1690"
         cx="70.420746"
         cy="-5.6068854"
         rx="2.4859579"
         ry="3.2317452" />
      <ellipse
         ry="3.2317452"
         rx="2.4859579"
         cy="-5.6068854"
         cx="79.608833"
         id="ellipse1692"
         style="fill:#000000;fill-opacity:1;stroke:none;stroke-width:2.48048;stroke-linecap:round;stroke-miterlimit:4;stroke-dasharray:none;stroke-dashoffset:0;stroke-opacity:1" />
      <ellipse
         ry="3.2317452"
         rx="2.4859579"
         cy="-12.169814"
         cx="88.796921"
         id="ellipse1694"
         style="fill:#000000;fill-opacity:1;stroke:none;stroke-width:2.48048;stroke-linecap:round;stroke-miterlimit:4;stroke-dasharray:none;stroke-dashoffset:0;stroke-opacity:1" />
      <ellipse
         style="fill:#000000;fill-opacity:1;stroke:none;stroke-width:2.48048;stroke-linecap:round;stroke-miterlimit:4;stroke-dasharray:none;stroke-dashoffset:0;stroke-opacity:1"
         id="ellipse1696"
         cx="101.92277"
         cy="-10.857228"
         rx="2.4859579"
         ry="3.2317452" />
      <ellipse
         ry="3.2317452"
         rx="2.4859579"
         cy="-2.9817133"
         cx="90.109512"
         id="ellipse1698"
         style="fill:#000000;fill-opacity:1;stroke:none;stroke-width:2.48048;stroke-linecap:round;stroke-miterlimit:4;stroke-dasharray:none;stroke-dashoffset:0;stroke-opacity:1" />
      <ellipse
         style="fill:#000000;fill-opacity:1;stroke:none;stroke-width:2.48048;stroke-linecap:round;stroke-miterlimit:4;stroke-dasharray:none;stroke-dashoffset:0;stroke-opacity:1"
         id="ellipse1700"
         cx="100.61018"
         cy="-2.9817133"
         rx="2.4859579"
         ry="3.2317452" />
      <ellipse
         ry="3.2317452"
         rx="2.4859579"
         cy="3.5812154"
         cx="74.358505"
         id="ellipse1702"
         style="fill:#000000;fill-opacity:1;stroke:none;stroke-width:2.48048;stroke-linecap:round;stroke-miterlimit:4;stroke-dasharray:none;stroke-dashoffset:0;stroke-opacity:1" />
      <ellipse
         style="fill:#000000;fill-opacity:1;stroke:none;stroke-width:2.48048;stroke-linecap:round;stroke-miterlimit:4;stroke-dasharray:none;stroke-dashoffset:0;stroke-opacity:1"
         id="ellipse1704"
         cx="52.044579"
         cy="8.8315582"
         rx="2.4859579"
         ry="3.2317452" />
    </g>
    <g
       id="g1595"
       transform="matrix(-0.15483302,-0.04253165,0.04253165,-0.15483302,98.009456,139.16154)">
      <path
         style="fill:#87cdde;fill-opacity:1;stroke:#000000;stroke-width:2.48048;stroke-miterlimit:4;stroke-dasharray:none;stroke-dashoffset:0;stroke-opacity:1"
         d="m 67.651853,68.812656 c -3.957949,-3.638038 -3.301054,-7.723998 3.066808,-15.833535 1.808595,-2.303268 4.557361,-5.900307 6.108365,-7.993415 6.618107,-8.931251 14.506915,-13.781962 22.429574,-13.791603 7.43566,-0.0089 12.11242,-9.780247 33.3198,2.469817 8.45425,4.883446 11.16531,18.577667 -7.76246,18.989452 -18.92775,0.411781 -42.584092,29.558974 -57.162087,16.159284 z"
         id="path1575"
         inkscape:connector-curvature="0"
         sodipodi:nodetypes="ssscscs" />
      <path
         sodipodi:nodetypes="cc"
         inkscape:connector-curvature="0"
         id="path1577"
         d="M 86.330864,69.717628 C 110.95876,77.510202 122.17049,66.296547 131.07811,51.818736"
         style="fill:none;fill-rule:evenodd;stroke:#000000;stroke-width:2.48048;stroke-linecap:butt;stroke-linejoin:miter;stroke-miterlimit:4;stroke-dasharray:none;stroke-opacity:1" />
      <path
         transform="matrix(0.65629287,0,0,0.65629287,-298.9926,-278.18023)"
         inkscape:connector-curvature="0"
         id="path1579"
         d="m 599.02902,530.88051 c -3.4909,-0.57349 -4.59347,-1.00692 -3.78788,-1.48905 5.99797,-3.58965 24.98204,-14.23217 29.16667,-16.35091 7.48664,-3.7906 14.64326,-6.07901 20.95657,-6.70111 l 5.43241,-0.5353 -2.50108,3.48269 c -7.35885,10.24702 -15.89552,17.14817 -25.02426,20.22993 -5.82591,1.96676 -16.81043,2.58469 -24.24243,1.36375 z"
         style="fill:#d5f6ff;fill-opacity:1;stroke:#d5f6ff;stroke-width:2.86328;stroke-linecap:round;stroke-miterlimit:4;stroke-dasharray:none;stroke-dashoffset:0;stroke-opacity:1" />
      <ellipse
         ry="7.9550653"
         rx="8.9494486"
         cy="45.852436"
         cx="98.263466"
         id="ellipse1581"
         style="fill:#000000;fill-opacity:1;stroke:none;stroke-width:2.48048;stroke-linecap:round;stroke-miterlimit:4;stroke-dasharray:none;stroke-dashoffset:0;stroke-opacity:1" />
      <ellipse
         ry="1.9887663"
         rx="2.2373621"
         cy="35.013668"
         cx="114.80001"
         id="ellipse1583"
         style="fill:#000000;fill-opacity:1;stroke:none;stroke-width:1.84599;stroke-linecap:round;stroke-miterlimit:4;stroke-dasharray:none;stroke-dashoffset:0;stroke-opacity:1" />
      <ellipse
         style="fill:#000000;fill-opacity:1;stroke:none;stroke-width:1.84599;stroke-linecap:round;stroke-miterlimit:4;stroke-dasharray:none;stroke-dashoffset:0;stroke-opacity:1"
         id="ellipse1585"
         cx="121.36292"
         cy="35.013668"
         rx="2.2373621"
         ry="1.9887663" />
      <ellipse
         ry="1.9887663"
         rx="2.2373621"
         cy="44.559738"
         cx="122.8545"
         id="ellipse1587"
         style="fill:#000000;fill-opacity:1;stroke:none;stroke-width:1.84599;stroke-linecap:round;stroke-miterlimit:4;stroke-dasharray:none;stroke-dashoffset:0;stroke-opacity:1" />
      <ellipse
         style="fill:#000000;fill-opacity:1;stroke:none;stroke-width:1.84599;stroke-linecap:round;stroke-miterlimit:4;stroke-dasharray:none;stroke-dashoffset:0;stroke-opacity:1"
         id="ellipse1589"
         cx="114.8"
         cy="41.576588"
         rx="2.2373621"
         ry="1.9887663" />
      <ellipse
         ry="1.9887663"
         rx="2.2373621"
         cy="38.553658"
         cx="125.73822"
         id="ellipse1591"
         style="fill:#000000;fill-opacity:1;stroke:none;stroke-width:1.84599;stroke-linecap:round;stroke-miterlimit:4;stroke-dasharray:none;stroke-dashoffset:0;stroke-opacity:1" />
      <ellipse
         style="fill:#000000;fill-opacity:1;stroke:none;stroke-width:1.84599;stroke-linecap:round;stroke-miterlimit:4;stroke-dasharray:none;stroke-dashoffset:0;stroke-opacity:1"
         id="ellipse1593"
         cx="119.73213"
         cy="39.945805"
         rx="2.2373621"
         ry="1.9887663" />
    </g>
    <path
       style="fill:#87cdde;fill-opacity:1;stroke:#000000;stroke-width:0.264583;stroke-opacity:1"
       d="m 83.401592,123.49503 v -6.61459 l 2.67398,1.97031 -2.67398,1.40735"
       id="path1" />
    <path
       style="fill:#c83737;fill-opacity:1;stroke:#000000;stroke-width:0.264583;stroke-opacity:1"
       d="m 76.505537,118.01762 v -6.61459 l 2.67398,1.97031 -2.67398,1.40735"
       id="path3" />
  </g>
</svg>
